<?xml version="1.0"?>
<svg xmlns="http://www.w3.org/2000/svg" viewBox="0 0 64 64" fill="#fc822e">
    <path d="M 27 6 C 24.243 6 22 8.243 22 11 L 22 14 L 5 14 C 3.346 14 2 15.346 2 17 L 2 55 C 2 56.654 3.346 58 5 58 L 59 58 C 60.654 58 62 56.654 62 55 L 62 17 C 62 15.346 60.654 14 59 14 L 42 14 L 42 11 C 42 8.243 39.757 6 37 6 L 27 6 z M 27 8 L 37 8 C 38.654 8 40 9.346 40 11 L 40 14 L 38 14 L 38 12 C 38 10.897 37.103 10 36 10 L 28 10 C 26.897 10 26 10.897 26 12 L 26 14 L 24 14 L 24 11 C 24 9.346 25.346 8 27 8 z M 28 12 L 36 12 L 36 14 L 28 14 L 28 12 z M 5 16 L 22 16 L 26 16 L 38 16 L 42 16 L 59 16 C 59.551 16 60 16.449 60 17 L 60 24 L 53.820312 24 C 53.410313 22.84 52.3 22 51 22 L 47 22 C 45.7 22 44.589687 22.84 44.179688 24 L 19.820312 24 C 19.410312 22.84 18.3 22 17 22 L 13 22 C 11.7 22 10.589687 22.84 10.179688 24 L 4 24 L 4 17 C 4 16.449 4.449 16 5 16 z M 13 24 L 17 24 C 17.55 24 18 24.45 18 25 C 18 25.55 17.55 26 17 26 L 13 26 C 12.45 26 12 25.55 12 25 C 12 24.45 12.45 24 13 24 z M 47 24 L 51 24 C 51.55 24 52 24.45 52 25 C 52 25.55 51.55 26 51 26 L 47 26 C 46.45 26 46 25.55 46 25 C 46 24.45 46.45 24 47 24 z M 4 26 L 10.179688 26 C 10.589688 27.16 11.7 28 13 28 L 17 28 C 18.3 28 19.410312 27.16 19.820312 26 L 44.179688 26 C 44.589687 27.16 45.7 28 47 28 L 51 28 C 52.3 28 53.410313 27.16 53.820312 26 L 60 26 L 60 55 C 60 55.551 59.551 56 59 56 L 5 56 C 4.449 56 4 55.551 4 55 L 4 26 z M 30 28 C 28.897 28 28 28.897 28 30 L 28 34 L 24 34 C 22.897 34 22 34.897 22 36 L 22 40 C 22 41.103 22.897 42 24 42 L 28 42 L 28 46 C 28 47.103 28.897 48 30 48 L 34 48 C 35.103 48 36 47.103 36 46 L 36 42 L 40 42 C 41.103 42 42 41.103 42 40 L 42 36 C 42 34.897 41.103 34 40 34 L 36 34 L 36 30 C 36 28.897 35.103 28 34 28 L 30 28 z M 30 30 L 34 30 L 34 34 C 34 35.103 34.897 36 36 36 L 40 36 L 40 40 L 36 40 C 34.897 40 34 40.897 34 42 L 34 46 L 30 46 L 30 42 C 30 40.897 29.103 40 28 40 L 24 40 L 24 36 L 28 36 C 29.103 36 30 35.103 30 34 L 30 30 z M 7 50 C 6.448 50 6 50.448 6 51 L 6 53 C 6 53.552 6.448 54 7 54 C 7.552 54 8 53.552 8 53 L 8 51 C 8 50.448 7.552 50 7 50 z M 12 50 C 11.448 50 11 50.448 11 51 L 11 53 C 11 53.552 11.448 54 12 54 C 12.552 54 13 53.552 13 53 L 13 51 C 13 50.448 12.552 50 12 50 z M 17 50 C 16.448 50 16 50.448 16 51 L 16 53 C 16 53.552 16.448 54 17 54 C 17.552 54 18 53.552 18 53 L 18 51 C 18 50.448 17.552 50 17 50 z M 22 50 C 21.448 50 21 50.448 21 51 L 21 53 C 21 53.552 21.448 54 22 54 C 22.552 54 23 53.552 23 53 L 23 51 C 23 50.448 22.552 50 22 50 z M 27 50 C 26.448 50 26 50.448 26 51 L 26 53 C 26 53.552 26.448 54 27 54 C 27.552 54 28 53.552 28 53 L 28 51 C 28 50.448 27.552 50 27 50 z M 32 50 C 31.448 50 31 50.448 31 51 L 31 53 C 31 53.552 31.448 54 32 54 C 32.552 54 33 53.552 33 53 L 33 51 C 33 50.448 32.552 50 32 50 z M 37 50 C 36.448 50 36 50.448 36 51 L 36 53 C 36 53.552 36.448 54 37 54 C 37.552 54 38 53.552 38 53 L 38 51 C 38 50.448 37.552 50 37 50 z M 42 50 C 41.448 50 41 50.448 41 51 L 41 53 C 41 53.552 41.448 54 42 54 C 42.552 54 43 53.552 43 53 L 43 51 C 43 50.448 42.552 50 42 50 z M 47 50 C 46.448 50 46 50.448 46 51 L 46 53 C 46 53.552 46.448 54 47 54 C 47.552 54 48 53.552 48 53 L 48 51 C 48 50.448 47.552 50 47 50 z M 52 50 C 51.448 50 51 50.448 51 51 L 51 53 C 51 53.552 51.448 54 52 54 C 52.552 54 53 53.552 53 53 L 53 51 C 53 50.448 52.552 50 52 50 z M 57 50 C 56.448 50 56 50.448 56 51 L 56 53 C 56 53.552 56.448 54 57 54 C 57.552 54 58 53.552 58 53 L 58 51 C 58 50.448 57.552 50 57 50 z"/>
</svg>
