<?xml version="1.0"?>
<svg xmlns="http://www.w3.org/2000/svg" viewBox="0 0 50 50" fill="#fc822e">
    <path style="line-height:normal;text-indent:0;text-align:start;text-decoration-line:none;text-decoration-style:solid;text-decoration-color:#000;text-transform:none;block-progression:tb;isolation:auto;mix-blend-mode:normal" d="M 24.962891 5 A 1.0001 1.0001 0 0 0 24.552734 5.1054688 L 22.552734 6.1054688 A 1.0001 1.0001 0 0 0 22.105469 6.5527344 L 21.382812 8 L 20 8 A 1.0001 1.0001 0 0 0 19.105469 8.5527344 L 18.382812 10 L 17 10 A 1.0001 1.0001 0 0 0 16.105469 10.552734 L 15.382812 12 L 14 12 A 1.0001 1.0001 0 0 0 13.167969 12.445312 L 11.464844 15 L 4 15 A 1.0001 1.0001 0 0 0 3 16 L 3 21 A 1.0001 1.0001 0 0 0 4 22 L 6 22 L 6 35 L 3 35 A 1.0001 1.0001 0 1 0 3 37 L 6 37 L 6 40 A 1.0001 1.0001 0 0 0 7 41 L 11.091797 41 C 11.036397 41.326248 11 41.658521 11 42 C 11 45.301864 13.698136 48 17 48 C 20.301864 48 23 45.301864 23 42 C 23 41.658521 22.963603 41.326248 22.908203 41 L 27.091797 41 C 27.036397 41.326248 27 41.658521 27 42 C 27 45.301864 29.698136 48 33 48 C 36.301864 48 39 45.301864 39 42 C 39 41.658521 38.963603 41.326248 38.908203 41 L 43 41 A 1.0001 1.0001 0 0 0 44 40 L 44 37 L 47 37 A 1.0001 1.0001 0 1 0 47 35 L 44 35 L 44 22 L 46 22 A 1.0001 1.0001 0 0 0 47 21 L 47 16 A 1.0001 1.0001 0 0 0 46 15 L 38.535156 15 L 36.832031 12.445312 A 1.0001 1.0001 0 0 0 36 12 L 34.617188 12 L 33.894531 10.552734 A 1.0001 1.0001 0 0 0 33 10 L 31.617188 10 L 30.894531 8.5527344 A 1.0001 1.0001 0 0 0 30 8 L 28.617188 8 L 27.894531 6.5527344 A 1.0001 1.0001 0 0 0 27.447266 6.1054688 L 25.447266 5.1054688 A 1.0001 1.0001 0 0 0 24.962891 5 z M 25 7.1171875 L 26.253906 7.7460938 L 27.105469 9.4472656 A 1.0001 1.0001 0 0 0 28 10 L 29.382812 10 L 30.105469 11.447266 A 1.0001 1.0001 0 0 0 31 12 L 32.382812 12 L 33.105469 13.447266 A 1.0001 1.0001 0 0 0 34 14 L 35.464844 14 L 36.130859 15 L 13.869141 15 L 14.535156 14 L 16 14 A 1.0001 1.0001 0 0 0 16.894531 13.447266 L 17.617188 12 L 19 12 A 1.0001 1.0001 0 0 0 19.894531 11.447266 L 20.617188 10 L 22 10 A 1.0001 1.0001 0 0 0 22.894531 9.4472656 L 23.746094 7.7460938 L 25 7.1171875 z M 5 17 L 11.833984 17 A 1.0001 1.0001 0 0 0 12.150391 17 L 37.853516 17 A 1.0001 1.0001 0 0 0 38.160156 17 L 45 17 L 45 20 L 43 20 L 7 20 L 5 20 L 5 17 z M 8 22 L 42 22 L 42 35.832031 A 1.0001 1.0001 0 0 0 42 36.158203 L 42 39 L 38.185547 39 C 37.144367 37.210955 35.209687 36 33 36 C 30.790313 36 28.855633 37.210955 27.814453 39 L 22.185547 39 C 21.144367 37.210955 19.209687 36 17 36 C 14.790313 36 12.855633 37.210955 11.814453 39 L 8 39 L 8 36.167969 A 1.0001 1.0001 0 0 0 8 35.841797 L 8 22 z M 17 38 C 19.220984 38 21 39.779016 21 42 C 21 44.220984 19.220984 46 17 46 C 14.779016 46 13 44.220984 13 42 C 13 39.779016 14.779016 38 17 38 z M 33 38 C 35.220984 38 37 39.779016 37 42 C 37 44.220984 35.220984 46 33 46 C 30.779016 46 29 44.220984 29 42 C 29 39.779016 30.779016 38 33 38 z"/>
</svg>
